<svg xmlns="http://www.w3.org/2000/svg" viewBox="0 0 128 128">
  <defs>
    <linearGradient id="g" x1="0" y1="0" x2="1" y2="1">
      <stop offset="0" stop-color="#0066ff"/>
      <stop offset="1" stop-color="#45c4ff"/>
    </linearGradient>
  </defs>
  <rect width="128" height="128" rx="28" fill="#14161c"/>
  <rect x="8" y="8" width="112" height="112" rx="22" fill="url(#g)"/>
  <!-- kubah + buku: pondok & sekolah -->
  <path d="M64 26c-12 12-22 17-22 30v6h44v-6c0-13-10-18-22-30z" fill="#fff" opacity="0.95"/>
  <rect x="36" y="66" width="56" height="8" rx="3" fill="#fff" opacity="0.9"/>
  <path d="M38 80h22c3 0 4 2 4 4v18c0-3-2-4-5-4H38zM90 80H68c-3 0-4 2-4 4v18c0-3 2-4 5-4h21z" fill="#fff" opacity="0.85"/>
</svg>
