<svg xmlns="http://www.w3.org/2000/svg" viewBox="0 0 128 128">
  <defs>
    <linearGradient id="g" x1="0" y1="0" x2="1" y2="1">
      <stop offset="0" stop-color="#0066ff"/>
      <stop offset="1" stop-color="#45c4ff"/>
    </linearGradient>
  </defs>
  <rect width="128" height="128" fill="url(#g)"/>
  <path d="M64 32c-10 10-18 14-18 25v5h36v-5c0-11-8-15-18-25z" fill="#fff" opacity="0.95"/>
  <rect x="40" y="66" width="48" height="7" rx="3" fill="#fff" opacity="0.9"/>
  <path d="M42 78h18c3 0 4 2 4 4v14c0-3-2-4-5-4H42zM86 78H68c-3 0-4 2-4 4v14c0-3 2-4 5-4h17z" fill="#fff" opacity="0.85"/>
</svg>
